<svg xmlns="http://www.w3.org/2000/svg" xmlns:xlink="http://www.w3.org/1999/xlink" viewBox="0 0 334 419.178">
  <defs>
    <filter id="e3398c0c-f564-40df-9c3e-6c32629d0351" x="150.89" y="-8409.5" width="43.698" height="32766" filterUnits="userSpaceOnUse" color-interpolation-filters="sRGB">
      <feFlood flood-color="#fff" result="bg"/>
      <feBlend in="SourceGraphic" in2="bg"/>
    </filter>
    <mask id="e9dab069-4985-4941-a755-b13bba666894" x="150.89" y="-8409.5" width="43.698" height="32766" maskUnits="userSpaceOnUse">
      <g style="filter: url(#e3398c0c-f564-40df-9c3e-6c32629d0351)"/>
    </mask>
    <linearGradient id="bbdbd8d1-d083-4b71-9ccf-21f467d802c9" x1="150.89" y1="218.194" x2="194.588" y2="218.194" gradientUnits="userSpaceOnUse">
      <stop offset="0" stop-color="#fff"/>
      <stop offset="1" stop-color="#595959"/>
    </linearGradient>
    <filter id="a66fab0a-dcec-443a-8336-f19294415ed8" x="150.538" y="-8409.5" width="27.919" height="32766" filterUnits="userSpaceOnUse" color-interpolation-filters="sRGB">
      <feFlood flood-color="#fff" result="bg"/>
      <feBlend in="SourceGraphic" in2="bg"/>
    </filter>
    <mask id="f1a87ef9-9745-451b-bb1a-c332cb737dcf" x="150.538" y="-8409.5" width="27.919" height="32766" maskUnits="userSpaceOnUse">
      <g style="filter: url(#a66fab0a-dcec-443a-8336-f19294415ed8)"/>
    </mask>
    <linearGradient id="f2d3690f-b898-4dc3-836b-e020b81aa8f2" x1="167.286" y1="226.947" x2="165.273" y2="213.303" gradientUnits="userSpaceOnUse">
      <stop offset="0" stop-color="#595959"/>
      <stop offset="1" stop-color="#fff"/>
    </linearGradient>
    <filter id="f15b2622-25b6-40c4-ac0a-229398825f74" x="168.699" y="-8409.5" width="18.953" height="32766" filterUnits="userSpaceOnUse" color-interpolation-filters="sRGB">
      <feFlood flood-color="#fff" result="bg"/>
      <feBlend in="SourceGraphic" in2="bg"/>
    </filter>
    <mask id="b9595afd-7dba-4d91-93aa-a0dfd18ec687" x="168.699" y="-8409.5" width="18.953" height="32766" maskUnits="userSpaceOnUse">
      <g style="filter: url(#f15b2622-25b6-40c4-ac0a-229398825f74)"/>
    </mask>
    <linearGradient id="f62428ed-dc6a-469e-812c-4a3ff89fb541" x1="180.505" y1="236.467" x2="177.871" y2="218.618" xlink:href="#f2d3690f-b898-4dc3-836b-e020b81aa8f2"/>
    <filter id="bc79fb14-7fcd-4a88-9f73-79d6559e0947" x="150.538" y="-8409.5" width="39.39" height="32766" filterUnits="userSpaceOnUse" color-interpolation-filters="sRGB">
      <feFlood flood-color="#fff" result="bg"/>
      <feBlend in="SourceGraphic" in2="bg"/>
    </filter>
    <mask id="fe4ce40e-4efc-4a47-aa71-c816d1964415" x="150.538" y="-8409.5" width="39.39" height="32766" maskUnits="userSpaceOnUse">
      <g style="filter: url(#bc79fb14-7fcd-4a88-9f73-79d6559e0947)"/>
    </mask>
    <linearGradient id="e02c65ab-0941-4408-873a-f91aaa26a154" x1="150.538" y1="214.764" x2="189.928" y2="214.764" xlink:href="#f2d3690f-b898-4dc3-836b-e020b81aa8f2"/>
    <linearGradient id="b523e60a-646a-4730-a8a0-01c7c5038092" x1="42.239" y1="384.578" x2="305.863" y2="384.578" gradientUnits="userSpaceOnUse">
      <stop offset="0" stop-color="#fff"/>
      <stop offset="1" stop-color="#fff"/>
    </linearGradient>
    <linearGradient id="a8ca7d39-1e70-4786-abba-2f81f74c92ce" x1="136.797" y1="218.234" x2="207.54" y2="218.234" gradientUnits="userSpaceOnUse">
      <stop offset="0" stop-color="#002f9b"/>
      <stop offset="0.976" stop-color="#0af"/>
    </linearGradient>
    <filter id="ac08745b-ff2e-4adf-b846-55680caf4b59" x="150.89" y="196.345" width="43.698" height="43.699" filterUnits="userSpaceOnUse" color-interpolation-filters="sRGB">
      <feFlood flood-color="#fff" result="bg"/>
      <feBlend in="SourceGraphic" in2="bg"/>
    </filter>
    <mask id="e3a8f907-660d-41cd-b7f8-2b7d973763e1" x="146.89" y="187.934" width="43.698" height="43.699" maskUnits="userSpaceOnUse">
      <g style="filter: url(#ac08745b-ff2e-4adf-b846-55680caf4b59)">
        <g transform="translate(-4 -8.411)">
          <g style="mask: url(#e9dab069-4985-4941-a755-b13bba666894)">
            <path d="M194.588,218.192a21.849,21.849,0,1,1-21.847-21.847A21.847,21.847,0,0,1,194.588,218.192Z" style="mix-blend-mode: multiply;fill: url(#bbdbd8d1-d083-4b71-9ccf-21f467d802c9)"/>
          </g>
        </g>
      </g>
    </mask>
    <linearGradient id="b290336f-b670-4f70-9743-6c4d8787014d" x1="150.89" y1="218.194" x2="194.588" y2="218.194" xlink:href="#b523e60a-646a-4730-a8a0-01c7c5038092"/>
    <filter id="a129303b-dc7b-4569-991b-bc7206c18bc9" x="150.538" y="195.883" width="27.919" height="34.576" filterUnits="userSpaceOnUse" color-interpolation-filters="sRGB">
      <feFlood flood-color="#fff" result="bg"/>
      <feBlend in="SourceGraphic" in2="bg"/>
    </filter>
    <mask id="feee6e01-b1ca-4dc6-8192-2e1129344ad6" x="146.538" y="187.473" width="27.919" height="34.576" maskUnits="userSpaceOnUse">
      <g style="filter: url(#a129303b-dc7b-4569-991b-bc7206c18bc9)">
        <g transform="translate(-4 -8.411)">
          <g style="mask: url(#f1a87ef9-9745-451b-bb1a-c332cb737dcf)">
            <path d="M172.39,195.883a22.188,22.188,0,0,0-3.453.3l-14.391,8.968a21.755,21.755,0,0,0,.105,25.312l23.806-33.7A21.727,21.727,0,0,0,172.39,195.883Z" style="mix-blend-mode: multiply;fill: url(#f2d3690f-b898-4dc3-836b-e020b81aa8f2)"/>
          </g>
        </g>
      </g>
    </mask>
    <linearGradient id="a0026a35-4cf9-4de9-b1fd-76ae2f4b164d" x1="167.286" y1="226.947" x2="165.273" y2="213.303" xlink:href="#b523e60a-646a-4730-a8a0-01c7c5038092"/>
    <filter id="fa7ca978-575b-4312-a992-599483c75ebb" x="168.699" y="196.805" width="18.953" height="42.778" filterUnits="userSpaceOnUse" color-interpolation-filters="sRGB">
      <feFlood flood-color="#fff" result="bg"/>
      <feBlend in="SourceGraphic" in2="bg"/>
    </filter>
    <mask id="e1778678-0d73-4d87-854e-f7e86bf7bffe" x="164.699" y="188.395" width="18.953" height="42.778" maskUnits="userSpaceOnUse">
      <g style="filter: url(#fa7ca978-575b-4312-a992-599483c75ebb)">
        <g transform="translate(-4 -8.411)">
          <g style="mask: url(#b9595afd-7dba-4d91-93aa-a0dfd18ec687)">
            <path d="M172.39,239.583a21.752,21.752,0,0,0,14.662-5.685l.6-31.785a21.811,21.811,0,0,0-9-5.308L168.7,239.246A21.893,21.893,0,0,0,172.39,239.583Z" style="mix-blend-mode: multiply;fill: url(#f62428ed-dc6a-469e-812c-4a3ff89fb541)"/>
          </g>
        </g>
      </g>
    </mask>
    <linearGradient id="ac0272c4-5ba3-4f9b-9a40-76ada1037d36" x1="180.505" y1="236.467" x2="177.871" y2="218.618" xlink:href="#b523e60a-646a-4730-a8a0-01c7c5038092"/>
    <filter id="a7bcf467-bff0-4c58-825e-caaa7913495f" x="150.538" y="195.883" width="39.39" height="37.762" filterUnits="userSpaceOnUse" color-interpolation-filters="sRGB">
      <feFlood flood-color="#fff" result="bg"/>
      <feBlend in="SourceGraphic" in2="bg"/>
    </filter>
    <mask id="a0b8a1a4-c52b-4f0d-92b0-dad1a9979a1f" x="146.538" y="187.473" width="39.39" height="37.762" maskUnits="userSpaceOnUse">
      <g style="filter: url(#a7bcf467-bff0-4c58-825e-caaa7913495f)">
        <g transform="translate(-4 -8.411)">
          <g style="mask: url(#fe4ce40e-4efc-4a47-aa71-c816d1964415)">
            <path d="M172.39,195.883a21.828,21.828,0,0,0-14.941,37.763,36.75,36.75,0,0,1,8.132-17.68c5.871-6.886,16.829-9.912,24.347-11.224A21.8,21.8,0,0,0,172.39,195.883Z" style="mix-blend-mode: multiply;fill: url(#e02c65ab-0941-4408-873a-f91aaa26a154)"/>
          </g>
        </g>
      </g>
    </mask>
    <linearGradient id="abffb736-130b-42e1-b6e7-0773ba255751" x1="150.538" y1="214.764" x2="189.928" y2="214.764" xlink:href="#b523e60a-646a-4730-a8a0-01c7c5038092"/>
  </defs>
  <title>blue card</title>
  <g style="isolation: isolate">
    <g id="f4c444a5-4c28-4751-996b-91ba14256b3b" data-name="Layer 1">
      <g>
        <path d="M312.334,399.39a10.2,10.2,0,0,1-10.195,10.2H39.367a10.2,10.2,0,0,1-10.2-10.2V32.014a10.2,10.2,0,0,1,10.2-10.2H302.139a10.194,10.194,0,0,1,10.195,10.2Z" transform="translate(-4 -8.411)" style="fill: #201b28"/>
        <g>
          <path d="M279.531,402.325H62.464a32.618,32.618,0,0,1-32.583-32.587V66.26A32.618,32.618,0,0,1,62.464,33.675H279.531A32.622,32.622,0,0,1,312.119,66.26V369.738A32.622,32.622,0,0,1,279.531,402.325ZM62.464,46.206A20.076,20.076,0,0,0,42.408,66.26V369.738A20.08,20.08,0,0,0,62.464,389.8H279.531a20.082,20.082,0,0,0,20.056-20.058V66.26a20.078,20.078,0,0,0-20.056-20.054ZM276.32,366.533H65.672V69.474H276.32ZM78.205,354H263.786V82H78.205Z" transform="translate(-4 -8.411)" style="fill: #16121c"/>
          <path d="M279.531,39.944H62.464A26.351,26.351,0,0,0,36.141,66.26V369.738a26.357,26.357,0,0,0,26.323,26.323H279.531a26.354,26.354,0,0,0,26.319-26.323V66.26A26.347,26.347,0,0,0,279.531,39.944Zm-9.476,320.317H71.938V75.742H270.055Z" transform="translate(-4 -8.411)" style="fill: #2c243c"/>
          <path d="M305.85,145.677V66.26a26.347,26.347,0,0,0-26.319-26.316H62.464A26.351,26.351,0,0,0,36.141,66.26V218.669a211.486,211.486,0,0,0,35.8,8.507V75.742H270.055V179.9A177.437,177.437,0,0,0,305.85,145.677Z" transform="translate(-4 -8.411)" style="fill: #50456d"/>
          <path d="M270.055,105.39c15.309-9.237,27.53-20,35.8-31.808V66.26a26.347,26.347,0,0,0-26.319-26.316H62.464A26.351,26.351,0,0,0,36.141,66.26v59.114a284.351,284.351,0,0,0,35.8,8.705V75.742H270.055Z" transform="translate(-4 -8.411)" style="fill: #2c243c"/>
          <path d="M55.483,374.348l232.481-4.705,17.9,14.875-19.276,12.708s-176.9,1.017-209.626,2.21-34.722-11.743-34.722-11.743Z" transform="translate(-4 -8.411)" style="mix-blend-mode: overlay;fill: url(#b523e60a-646a-4730-a8a0-01c7c5038092)"/>
          <path d="M58.46,49.427H275.53a8.423,8.423,0,0,1,8.423,8.423V361.328a8.422,8.422,0,0,1-8.422,8.422H58.459a8.422,8.422,0,0,1-8.422-8.422V57.851a8.423,8.423,0,0,1,8.423-8.423Z" style="fill: #16121c"/>
          <path d="M279.531,373.647H62.464a8.424,8.424,0,0,1-8.427-8.42v4.416a8.425,8.425,0,0,0,8.427,8.426H279.531a8.423,8.423,0,0,0,8.422-8.426v-4.416A8.422,8.422,0,0,1,279.531,373.647Z" transform="translate(-4 -8.411)" style="fill: #2c243c"/>
          <path d="M279.531,58.289H62.464a8.426,8.426,0,0,0-8.427,8.425v4a8.43,8.43,0,0,1,8.427-8.428H279.531a8.428,8.428,0,0,1,8.422,8.428v-4A8.424,8.424,0,0,0,279.531,58.289Z" transform="translate(-4 -8.411)" style="fill: #50456d"/>
          <g>
            <g>
              <g>
                <path d="M289.572,139.791l-12.516,9.514-7.661,3.72s5.61-1.645,7.718-2.125,8.372-3.235,9.739-1.878,1.285,8.964,2.174,7.452S289.572,139.791,289.572,139.791Z" transform="translate(-4 -8.411)" style="fill: #16121c"/>
                <path d="M277.113,150.9l-7.885,2.713s7.472-1.34,7.865-1.445,8.781-2.917,8.991-3.485S277.113,150.9,277.113,150.9Z" transform="translate(-4 -8.411)" style="fill: #16121c"/>
              </g>
              <path d="M289.634,128.311s-11.074,16.931-11.992,17.742-8.247,6.972-8.247,6.972l7.661-3.72,12.473-8.275Z" transform="translate(-4 -8.411)" style="fill: #16121c"/>
            </g>
            <path d="M306.484,132.119c-.383-.8-16.912,7.672-16.912,7.672l-.546,16.683,17.084,6.806S310.739,140.965,306.484,132.119Z" transform="translate(-4 -8.411)" style="fill: #16121c"/>
          </g>
          <g>
            <g>
              <path d="M52.067,372.348S63.6,370.152,65.5,359.2s-9.819-11.454-9.819-11.454Z" transform="translate(-4 -8.411)" style="fill: #16121c"/>
              <path d="M64.152,357.551a14.6,14.6,0,0,1-6.769,7.427s.436.336.5,2.07a14.839,14.839,0,0,0,.346,2.849s5.928-3.364,7.114-8.468-.283-8.089-.283-8.089A34.9,34.9,0,0,1,64.152,357.551Z" transform="translate(-4 -8.411)" style="fill: #2c243c"/>
            </g>
            <path d="M34.753,342.75s23.073,5.2,24.3,5.654,6.99,5.315,6.609,7.543a69.8,69.8,0,0,1-2,7.09s-1.562-10.778-3.035-10.816-4.1,3.6-7.777,5.3-18.1,2.876-18.1,2.876Z" transform="translate(-4 -8.411)" style="fill: #16121c"/>
          </g>
          <polygon points="145.126 373.936 150.102 369.952 137.093 370.114 140.389 373.42 139.834 387.581 144.99 387.578 149.972 384.716 145.598 383.071 145.126 373.936" style="fill: #2c243c"/>
          <path d="M169.813,394.863s-12.38.9-11.374-.344.77-3.159-.678-3.275-7.115-3.249-6.64-3.642,1.063-5.951,1.063-5.951,4.714.462,14.36-1.07-16.312.485-9.215-2.42l-3.227.2-4.976,3.984.472,9.134,4.374,1.645-4.617,4.1Z" transform="translate(-4 -8.411)" style="fill: #2c243c"/>
          <g>
            <rect x="99.467" y="120.182" width="134.362" height="178.319" rx="33.766" style="fill: #2c243c"/>
            <path d="M237.893,67.477H103.4a5,5,0,0,0-3.745,8.3l37.256,42.194a5,5,0,0,0,3.745,1.689h57.759a5,5,0,0,0,3.648-1.583l39.478-42.193A5,5,0,0,0,237.893,67.477Z" transform="translate(-4 -8.411)" style="fill: #2c243c"/>
            <path d="M103.4,368.522H237.894a5,5,0,0,0,3.745-8.3l-37.256-42.194a5,5,0,0,0-3.745-1.689H142.879a5,5,0,0,0-3.648,1.583L99.753,360.112A5,5,0,0,0,103.4,368.522Z" transform="translate(-4 -8.411)" style="fill: #2c243c"/>
            <path d="M281.943,110.907V327.782a2.459,2.459,0,0,1-4.236,1.7l-31.7-33.119a2.454,2.454,0,0,1-.683-1.7V143.08a2.464,2.464,0,0,1,.707-1.727l31.7-32.172A2.459,2.459,0,0,1,281.943,110.907Z" transform="translate(-4 -8.411)" style="fill: #2c243c"/>
            <path d="M60.047,110.907V327.782a2.459,2.459,0,0,0,4.236,1.7l31.7-33.119a2.458,2.458,0,0,0,.682-1.7V143.08a2.464,2.464,0,0,0-.707-1.727l-31.7-32.172A2.459,2.459,0,0,0,60.047,110.907Z" transform="translate(-4 -8.411)" style="fill: #2c243c"/>
          </g>
          <circle cx="166.648" cy="209.341" r="47.793" style="fill: #16121c"/>
          <g>
            <g>
              <path d="M207.54,218.234a35.372,35.372,0,1,1-35.369-35.372A35.371,35.371,0,0,1,207.54,218.234Z" transform="translate(-4 -8.411)" style="fill: url(#a8ca7d39-1e70-4786-abba-2f81f74c92ce)"/>
              <g>
                <g style="mask: url(#e3a8f907-660d-41cd-b7f8-2b7d973763e1)">
                  <path d="M194.588,218.192a21.849,21.849,0,1,1-21.847-21.847A21.847,21.847,0,0,1,194.588,218.192Z" transform="translate(-4 -8.411)" style="opacity: 0.5;mix-blend-mode: overlay;fill: url(#b290336f-b670-4f70-9743-6c4d8787014d)"/>
                </g>
                <g>
                  <path d="M172.125,183.732a35.809,35.809,0,0,1,35.785,34.919c.006-.31.047-.611.047-.918a35.834,35.834,0,1,0-71.667,0c0,.307.041.608.047.918A35.812,35.812,0,0,1,172.125,183.732Z" transform="translate(-4 -8.411)" style="fill: #f2eef8;mix-blend-mode: soft-light"/>
                  <path d="M172.125,251.8a35.81,35.81,0,0,1-35.788-34.952c-.009.3-.047.586-.047.884a35.834,35.834,0,0,0,71.667,0c0-.3-.038-.588-.046-.884A35.81,35.81,0,0,1,172.125,251.8Z" transform="translate(-4 -8.411)" style="opacity: 0.4;mix-blend-mode: multiply"/>
                  <path d="M172.126,184.217A33.085,33.085,0,1,0,205.207,217.3,33.084,33.084,0,0,0,172.126,184.217Z" transform="translate(-4 -8.411)" style="fill: #f2eef8;opacity: 0.58;mix-blend-mode: overlay"/>
                  <path d="M157.364,187.874l4.07,6.734a25.052,25.052,0,0,1,23.629.857h.191l4.025-6.6a32.876,32.876,0,0,0-31.915-.987Z" transform="translate(-4 -8.411)" style="fill: #f2eef8;mix-blend-mode: soft-light"/>
                  <g>
                    <path d="M152.038,218.806a21.829,21.829,0,0,1,33.734-18.318A21.833,21.833,0,1,0,160.5,236.051,21.8,21.8,0,0,1,152.038,218.806Z" transform="translate(-4 -8.411)" style="fill: #fff"/>
                    <g>
                      <g style="mask: url(#feee6e01-b1ca-4dc6-8192-2e1129344ad6)">
                        <path d="M172.39,195.883a22.188,22.188,0,0,0-3.453.3l-14.391,8.968a21.755,21.755,0,0,0,.105,25.312l23.806-33.7A21.727,21.727,0,0,0,172.39,195.883Z" transform="translate(-4 -8.411)" style="opacity: 0.53;mix-blend-mode: overlay;fill: url(#a0026a35-4cf9-4de9-b1fd-76ae2f4b164d)"/>
                      </g>
                      <g style="mask: url(#e1778678-0d73-4d87-854e-f7e86bf7bffe)">
                        <path d="M172.39,239.583a21.752,21.752,0,0,0,14.662-5.685l.6-31.785a21.811,21.811,0,0,0-9-5.308L168.7,239.246A21.893,21.893,0,0,0,172.39,239.583Z" transform="translate(-4 -8.411)" style="opacity: 0.53;mix-blend-mode: overlay;fill: url(#ac0272c4-5ba3-4f9b-9a40-76ada1037d36)"/>
                      </g>
                    </g>
                    <g style="mask: url(#a0b8a1a4-c52b-4f0d-92b0-dad1a9979a1f)">
                      <path d="M172.39,195.883a21.828,21.828,0,0,0-14.941,37.763,36.75,36.75,0,0,1,8.132-17.68c5.871-6.886,16.829-9.912,24.347-11.224A21.8,21.8,0,0,0,172.39,195.883Z" transform="translate(-4 -8.411)" style="opacity: 0.4;mix-blend-mode: overlay;fill: url(#abffb736-130b-42e1-b6e7-0773ba255751)"/>
                    </g>
                  </g>
                  <path d="M188.806,245.8l-3.883-6.81a25.075,25.075,0,0,1-25.577.1l-3.9,6.791a32.872,32.872,0,0,0,33.362-.078Z" transform="translate(-4 -8.411)" style="opacity: 0.25;mix-blend-mode: multiply"/>
                  <path d="M205.207,217.3c0-.159-.021-.315-.023-.471l-7.843-.04c0,.171.025.336.025.511a25.206,25.206,0,0,1-12.4,21.705l3.894,6.8A33.04,33.04,0,0,0,205.207,217.3Z" transform="translate(-4 -8.411)" style="opacity: 0.15;mix-blend-mode: multiply"/>
                  <path d="M159.427,239.094A25.208,25.208,0,0,1,146.881,217.3c0-.157.02-.3.024-.457l-7.844.012c0,.152-.02.3-.02.445a33.033,33.033,0,0,0,16.474,28.576Z" transform="translate(-4 -8.411)" style="opacity: 0.1;mix-blend-mode: multiply"/>
                </g>
              </g>
            </g>
            <g>
              <path d="M169.288,182.168c2.509,5.168,11.817,19.649,11.817,19.649s14.019,16.367,14.553,16.909-11.912-19.119-11.912-19.119Z" transform="translate(-4 -8.411)" style="fill: #fff;opacity: 0.7000000000000001"/>
              <path d="M169.384,217.73c3.777-4.249,14.9-17.275,14.9-17.275s9.275-17.412,9.5-17.908c.064-.15-11.858,16.386-11.858,16.386Z" transform="translate(-4 -8.411)" style="fill: #fff;opacity: 0.7000000000000001"/>
              <path d="M185.319,197.333c-3.438-2.672-2.806-10.206-2.842-12.331v2.038c-.009-.334-.021-.678-.021-.754V185c-.01.609-.054,1.572-.182,2.691,0,0-1.015,7.555-2.824,9.132-4.08,3.561-14.353,2.884-10.407,2.97,13.292.284,13.292,13.278,13.413,17.531v-2.152c.01.155.016.281.021.372v1.78c.282-10.086.245-16.458,11.858-17.318C198.169,199.719,189.319,200.455,185.319,197.333Z" transform="translate(-4 -8.411)" style="fill: #fff"/>
            </g>
          </g>
        </g>
        <g>
          <g>
            <g>
              <path d="M330.6,131.018l-7.591,8.744-13.452-12.3a22.189,22.189,0,0,1-2.306-11.53V73.269s.384-8.455-4.612-13.452L280.732,38.486s-.384-1.73-12.683-1.73h-38.82a11.685,11.685,0,0,1-6.341-4.035L217.7,27.34l3.531-13.957,76.029,11.458L326.47,58.664Z" transform="translate(-4 -8.411)" style="fill: #16121c"/>
              <path d="M331.85,69.042l3.957-10.222a6.48,6.48,0,0,0,.336-3.481l-1.276-7.149a6.486,6.486,0,0,0-1.567-3.2L308.415,17.377a6.482,6.482,0,0,0-4.817-2.144H250.8a3.888,3.888,0,0,1-1.565-.329L234.7,8.52a1.3,1.3,0,0,0-.952-.036L221.6,12.751a1.294,1.294,0,0,0-.614,2,33.355,33.355,0,0,0,25.54,13.17h43.816l13.452,14.605s2.69,2.691,5.765,1.154c0,0-.768,3.459,2.306,7.686l5.381,5.766v59.345a6.486,6.486,0,0,0,2.186,4.855l11.266,9.979,7.3-15.374-5.044-6.231a6.469,6.469,0,0,1-1.444-4.2C331.672,97.138,332.177,69.368,331.85,69.042Z" transform="translate(-4 -8.411)" style="fill: #50456d"/>
            </g>
            <g>
              <path d="M11.4,131.018l7.591,8.744,13.452-12.3a22.189,22.189,0,0,0,2.306-11.53V73.269s-.384-8.455,4.612-13.452L61.268,38.486s.384-1.73,12.683-1.73h38.82a11.685,11.685,0,0,0,6.341-4.035L124.3,27.34,120.77,13.383,44.741,24.841,15.53,58.664Z" transform="translate(-4 -8.411)" style="fill: #16121c"/>
              <path d="M10.15,69.042,6.193,58.82a6.48,6.48,0,0,1-.336-3.481L7.133,48.19a6.486,6.486,0,0,1,1.567-3.2L33.585,17.377A6.482,6.482,0,0,1,38.4,15.233H91.2a3.888,3.888,0,0,0,1.565-.329L107.305,8.52a1.3,1.3,0,0,1,.952-.036L120.4,12.751a1.294,1.294,0,0,1,.614,2,33.355,33.355,0,0,1-25.54,13.17H51.659L38.207,42.521s-2.69,2.691-5.765,1.154c0,0,.768,3.459-2.306,7.686l-5.381,5.766v59.345a6.486,6.486,0,0,1-2.186,4.855L11.3,131.306,4,115.932,9.044,109.7a6.469,6.469,0,0,0,1.444-4.2C10.328,97.138,9.823,69.368,10.15,69.042Z" transform="translate(-4 -8.411)" style="fill: #50456d"/>
            </g>
          </g>
          <g>
            <g>
              <path d="M330.6,304.982l-7.591-8.744-13.452,12.3a22.189,22.189,0,0,0-2.306,11.53v42.663s.384,8.455-4.612,13.452l-21.908,21.331s-.384,1.73-12.683,1.73h-38.82a11.685,11.685,0,0,0-6.341,4.035L217.7,408.66l3.531,13.957,76.029-11.458,29.211-33.823Z" transform="translate(-4 -8.411)" style="fill: #16121c"/>
              <path d="M331.85,366.958l3.957,10.222a6.48,6.48,0,0,1,.336,3.481l-1.276,7.149a6.486,6.486,0,0,1-1.567,3.2l-24.885,27.611a6.482,6.482,0,0,1-4.817,2.144H250.8a3.888,3.888,0,0,0-1.565.329L234.7,427.48a1.3,1.3,0,0,1-.952.036L221.6,423.249a1.294,1.294,0,0,1-.614-2,33.355,33.355,0,0,1,25.54-13.17h43.816l13.452-14.605s2.69-2.691,5.765-1.154c0,0-.768-3.459,2.306-7.686l5.381-5.766V319.528a6.486,6.486,0,0,1,2.186-4.855l11.266-9.979,7.3,15.374-5.044,6.231a6.469,6.469,0,0,0-1.444,4.2C331.672,338.862,332.177,366.632,331.85,366.958Z" transform="translate(-4 -8.411)" style="fill: #50456d"/>
            </g>
            <g>
              <path d="M11.4,304.982l7.591-8.744,13.452,12.3a22.189,22.189,0,0,1,2.306,11.53v42.663s-.384,8.455,4.612,13.452l21.908,21.331s.384,1.73,12.683,1.73h38.82a11.685,11.685,0,0,1,6.341,4.035l5.189,5.381-3.531,13.957L44.741,411.159,15.53,377.336Z" transform="translate(-4 -8.411)" style="fill: #16121c"/>
              <path d="M10.15,366.958,6.193,377.18a6.48,6.48,0,0,0-.336,3.481l1.276,7.149a6.486,6.486,0,0,0,1.567,3.2l24.885,27.611a6.482,6.482,0,0,0,4.817,2.144H91.2a3.888,3.888,0,0,1,1.565.329l14.541,6.384a1.3,1.3,0,0,0,.952.036l12.144-4.267a1.294,1.294,0,0,0,.614-2,33.355,33.355,0,0,0-25.54-13.17H51.659L38.207,393.479s-2.69-2.691-5.765-1.154c0,0,.768-3.459-2.306-7.686l-5.381-5.766V319.528a6.486,6.486,0,0,0-2.186-4.855L11.3,304.694,4,320.068,9.044,326.3a6.469,6.469,0,0,1,1.444,4.2C10.328,338.862,9.823,366.632,10.15,366.958Z" transform="translate(-4 -8.411)" style="fill: #50456d"/>
            </g>
          </g>
        </g>
      </g>
    </g>
  </g>
</svg>
